HIERARCHY
ROOT RootJoint
{
    OFFSET   0.000000   0.000000   0.000000
    CHANNELS 6 Xposition Yposition Zposition Xrotation Yrotation Zrotation
    JOINT pelvis_lowerback
    {
        OFFSET   0.000000   0.093605   0.000000
        CHANNELS 3 Xrotation Yrotation Zrotation
        JOINT lowerback_torso
        {
            OFFSET   0.000000   0.100000   0.000000
            CHANNELS 3 Xrotation Yrotation Zrotation
            JOINT torso_head
            {
                OFFSET   0.000000   0.282350   0.000000
                CHANNELS 3 Xrotation Yrotation Zrotation
                End Site
                {
                    OFFSET   0.000000   0.192650   0.000000
                }
            }
            JOINT rTorso_Clavicle
            {
                OFFSET  -0.001000   0.157500   0.000000
                CHANNELS 3 Xrotation Yrotation Zrotation
                JOINT rShoulder
                {
                    OFFSET  -0.117647   0.000000   0.000000
                    CHANNELS 3 Xrotation Yrotation Zrotation
                    JOINT rElbow
                    {
                        OFFSET  -0.245000   0.000000   0.000000
                        CHANNELS 3 Xrotation Yrotation Zrotation
                        JOINT rWrist
                        {
                            OFFSET  -0.240000   0.000000   0.000000
                            CHANNELS 3 Xrotation Yrotation Zrotation
                            End Site
                            {
                                OFFSET  -0.116353  -0.002500   0.000000
                            }
                        }
                    }
                }
            }
            JOINT lTorso_Clavicle
            {
                OFFSET   0.001000   0.157500   0.000000
                CHANNELS 3 Xrotation Yrotation Zrotation
                JOINT lShoulder
                {
                    OFFSET   0.117647   0.000000   0.000000
                    CHANNELS 3 Xrotation Yrotation Zrotation
                    JOINT lElbow
                    {
                        OFFSET   0.245000   0.000000   0.000000
                        CHANNELS 3 Xrotation Yrotation Zrotation
                        JOINT lWrist
                        {
                            OFFSET   0.240000   0.000000   0.000000
                            CHANNELS 3 Xrotation Yrotation Zrotation
                            End Site
                            {
                                OFFSET   0.116353  -0.002500   0.000000
                            }
                        }
                    }
                }
            }
        }
    }
    JOINT rHip
    {
        OFFSET  -0.100000  -0.051395   0.000000
        CHANNELS 3 Xrotation Yrotation Zrotation
        JOINT rKnee
        {
            OFFSET   0.000000  -0.410000   0.000000
            CHANNELS 3 Xrotation Yrotation Zrotation
            JOINT rAnkle
            {
                OFFSET   0.000000  -0.390000   0.000000
                CHANNELS 3 Xrotation Yrotation Zrotation
                JOINT rToeJoint
                {
                    OFFSET   0.000000  -0.050000   0.130000
                    CHANNELS 3 Xrotation Yrotation Zrotation
                    End Site
                    {
                        OFFSET  -0.010000   0.002000   0.060000
                    }
                }
            }
        }
    }
    JOINT lHip
    {
        OFFSET   0.100000  -0.051395   0.000000
        CHANNELS 3 Xrotation Yrotation Zrotation
        JOINT lKnee
        {
            OFFSET   0.000000  -0.410000   0.000000
            CHANNELS 3 Xrotation Yrotation Zrotation
            JOINT lAnkle
            {
                OFFSET   0.000000  -0.390000   0.000000
                CHANNELS 3 Xrotation Yrotation Zrotation
                JOINT lToeJoint
                {
                    OFFSET   0.000000  -0.050000   0.130000
                    CHANNELS 3 Xrotation Yrotation Zrotation
                    End Site
                    {
                        OFFSET   0.010000   0.002000   0.060000
                    }
                }
            }
        }
    }
}
MOTION
Frames: 15
Frame Time:   0.008333
 -2.376719   0.925631   3.975860   0.000000   0.000000   0.000000   0.000000   0.000000   0.000000   0.000000   0.000000   0.000000   0.000000   0.000000   0.000000   0.000000   0.000000   0.000000   0.000000   0.000000   0.000000   0.000000   0.000000   0.000000   0.000000   0.000000   0.000000   0.000000   0.000000   0.000000   0.000000   0.000000   0.000000   0.000000   0.000000   0.000000   0.000000   0.000000   0.000000   0.000000   0.000000   0.000000   0.000000   0.000000   0.000000   0.000000   0.000000   0.000000   0.000000   0.000000   0.000000   0.000000   0.000000   0.000000   0.000000   0.000000   0.000000   0.000000   0.000000   0.000000   0.000000   0.000000   0.000000
 -2.376589   0.926323   3.975908  -0.148610   0.067912   0.022886   0.075194   0.066264   0.009088   0.180463  -0.194301  -0.019581  -0.184564   0.150018  -0.029103   0.309277  -0.301821   0.522152   1.180407   0.372551   1.903423   0.014829   0.692037  -0.009715   0.643739  -0.437434  -2.626388   0.348687   0.254716  -0.772556   1.509105  -0.143618  -1.722736   0.014172  -0.649842   0.011209   0.693928   0.234507   2.692015  -0.082001   0.201733  -0.162594   0.941538   0.001170   0.002203  -0.950075  -0.173059   0.006072  -0.314207  -0.000360  -0.000268  -0.089884  -0.247965   0.098003   0.729864  -0.000780  -0.001140  -0.842370   0.088498   0.015343   0.334961  -0.000396  -0.000268
 -2.376467   0.927475   3.976087  -0.339656   0.164232   0.055118   0.141225   0.119567   0.014875   0.386489  -0.397268  -0.050868  -0.352443   0.293403  -0.052992   0.614223  -0.537604   1.784802   2.328026   0.826133   4.402888   0.034552   1.369932  -0.016911   1.325141  -0.682450  -4.497334   0.696112   0.432708  -2.308727   2.988963  -0.377940  -4.073155   0.033132  -1.282817   0.019598   1.440638   0.311248   4.623982  -0.090546   0.399236  -0.435768   1.951752   0.003171   0.004271  -1.837745  -0.335832   0.008342  -0.651436  -0.000983  -0.000610  -0.149612  -0.489125   0.297844   1.498459  -0.002223  -0.001837  -1.630936   0.171129   0.030937   0.600912  -0.000893  -0.000355
 -2.376370   0.928646   3.976380  -0.521289   0.263283   0.092061   0.184552   0.166553   0.012649   0.569481  -0.591970  -0.090622  -0.510922   0.427469  -0.072499   0.903058  -0.709788   3.493651   3.431997   1.359092   7.292062   0.054021   2.013335  -0.021676   1.983549  -0.825651  -5.512441   1.022786   0.542682  -4.293194   4.429577  -0.710989  -6.833821   0.052003  -1.884619   0.025351   2.164811   0.296093   5.673867  -0.060975   0.582929  -0.791991   2.925151   0.005430   0.005638  -2.665290  -0.488869   0.007568  -0.964854  -0.001657  -0.000859  -0.206469  -0.711532   0.586475   2.226319  -0.003906  -0.002146  -2.367161   0.249632   0.047230   0.837169  -0.001423  -0.000364
 -2.376299   0.929521   3.976778  -0.683359   0.351961   0.131264   0.208160   0.211427   0.001627   0.723539  -0.773929  -0.137578  -0.662328   0.552792  -0.089204   1.175839  -0.833293   5.448541   4.490909   1.971428  10.438782   0.070924   2.621767  -0.024634   2.618468  -0.893605  -5.898373   1.326541   0.604181  -6.518293   5.831231  -1.143805  -9.864354   0.068531  -2.455036   0.029132   2.864177   0.207644   6.075009  -0.007254   0.753032  -1.211836   3.845457   0.007616   0.006310  -3.437957  -0.632688   0.004352  -1.257990  -0.002305  -0.001003  -0.265517  -0.917164   0.948527   2.904039  -0.005564  -0.002240  -3.055225   0.324092   0.064124   1.046358  -0.001906  -0.000350
 -2.376248   0.929865   3.977273  -0.825320   0.424285   0.171166   0.215499   0.255857  -0.017609   0.851100  -0.941934  -0.190762  -0.805950   0.669899  -0.104067   1.432207  -0.921673   7.516225   5.502271   2.658865  13.752675   0.084318   3.195406  -0.026266   3.230519  -0.903995  -5.866608   1.606529   0.633106  -8.847883   7.192108  -1.672678 -13.069450   0.081757  -2.994017   0.031454   3.538096   0.062934   6.045789   0.064422   0.910469  -1.679990   4.711985   0.009553   0.006422  -4.159552  -0.767710  -0.000813  -1.531730  -0.002880  -0.001057  -0.325981  -1.108276   1.369116   3.533898  -0.007053  -0.002220  -3.698257   0.394479   0.081420   1.232238  -0.002304  -0.000334
 -2.376242   0.929497   3.977859  -0.949168   0.479406   0.212812   0.209448   0.300828  -0.049049   0.956058  -1.095578  -0.259630  -0.941200   0.779169  -0.114694   1.672527  -0.986615   9.614354   6.463337   3.415215  17.176787   0.094007   3.734577  -0.026935   3.819158  -0.872816  -5.566834   1.864554   0.642316 -11.228488   8.460435  -2.271268 -16.282933   0.091271  -3.502785   0.032481   4.187093  -0.131245   5.690714   0.150577   1.056119  -2.183071   5.527202   0.011133   0.006136  -4.833457  -0.894387  -0.007574  -1.786813  -0.003348  -0.001043  -0.386346  -1.286720   1.835489   4.119944  -0.008312  -0.002136  -4.299074   0.460778   0.098869   1.398211  -0.002609  -0.000321
 -2.376162   0.927662   3.978054  -0.920470   0.442099   0.311836   0.144764   0.369492  -0.093500   1.028309  -1.188859  -0.404641  -1.253020   0.751238  -0.209112   1.966212  -0.850025  11.094486   7.443879   4.166412  20.436677   0.105276   4.442029  -0.030752   4.342867  -0.808856  -4.084551   2.142800   0.657225 -12.804104   9.477783  -3.013623 -19.415358   0.098215  -4.081197   0.033722   4.746542  -0.461380   4.158425   0.133666   0.962780  -2.726947   5.855143   0.010166   0.004355  -5.121223  -1.047046   0.136141  -1.705245  -0.002459  -0.001029  -0.560375  -1.294484   2.178425   4.368214  -0.007627  -0.001692  -4.714437   0.430175   0.093767   1.544235  -0.002648  -0.000327
 -2.376070   0.924588   3.977987  -0.861555   0.351752   0.414123   0.120542   0.457065  -0.139076   1.086053  -1.248402  -0.551849  -1.558612   0.720180  -0.312020   2.207699  -0.645161  12.282399   8.305775   4.960396  23.340090   0.109477   5.123987  -0.033255   4.861675  -0.617944  -2.690553   2.382183   0.628806 -14.055474  10.382528  -3.772093 -22.184017   0.099421  -4.633894   0.034109   5.280259  -0.879160   2.739586   0.062908   0.863299  -3.236866   6.077000   0.008894   0.003000  -5.390018  -1.193161   0.269030  -1.607075  -0.001727  -0.001106  -0.775002  -1.297638   2.467385   4.538355  -0.006700  -0.001417  -5.104388   0.401054   0.088473   1.678984  -0.002577  -0.000382
 -2.375973   0.920408   3.977793  -0.797842   0.241530   0.509524   0.126704   0.551457  -0.180403   1.146845  -1.288768  -0.688226  -1.841165   0.691241  -0.411501   2.404543  -0.410807  13.256130   9.062420   5.762879  25.943703   0.108830   5.772377  -0.034500   5.362164  -0.368045  -1.547067   2.588511   0.576003 -15.077807  11.188962  -4.524560 -24.653553   0.096823  -5.154787   0.033679   5.786862  -1.311439   1.587784  -0.028153   0.769529  -3.701092   6.256981   0.007665   0.001991  -5.641820  -1.330438   0.392324  -1.517090  -0.001186  -0.001150  -1.003564  -1.303527   2.718081   4.676469  -0.005793  -0.001216  -5.469171   0.373207   0.083148   1.801939  -0.002431  -0.000439
 -2.375849   0.920189   3.978045  -0.873079   0.144767   0.551936   0.189894   0.640617  -0.173889   1.262084  -1.322260  -0.801613  -2.094684   0.664362  -0.506328   2.572567  -0.164164  14.355497   9.725604   6.557555  28.388100   0.106659   6.373823  -0.034427   5.839885  -0.164373  -0.674126   2.766725   0.504201 -16.221228  11.902001  -5.273052 -26.971958   0.093208  -5.635930   0.032375   6.265768  -1.660716   0.708114  -0.194905   0.588692  -3.806343   6.682749   0.006268   0.000431  -5.489985  -1.528187   0.664408  -1.339093  -0.001243  -0.001695  -1.162119  -1.215291   2.677170   5.167582  -0.004663  -0.000914  -5.394873   0.421908  -0.073106   1.988692  -0.001700  -0.000269
 -2.375728   0.920145   3.978524  -0.894731   0.117342   0.594630   0.187689   0.708033  -0.181668   1.339107  -1.364544  -0.898379  -2.328403   0.638858  -0.592847   2.736160   0.047889  15.253901  10.317999   7.320250  30.659280   0.102019   6.943235  -0.033523   6.293733   0.094933   0.256750   2.937166   0.448536 -17.147212  12.543283  -5.993726 -29.112314   0.087986  -6.093958   0.030462   6.719928  -2.067306  -0.209198  -0.295381   0.520198  -3.882185   6.984124   0.005074   0.000032  -5.637928  -1.613779   0.801737  -1.216612  -0.001104  -0.001561  -1.263758  -1.211631   2.620307   5.501354  -0.003705  -0.000763  -5.604825   0.394146  -0.085878   2.143240  -0.001330  -0.000273
 -2.375585   0.920119   3.979062  -0.878584   0.136105   0.642592   0.168762   0.768901  -0.195682   1.387341  -1.407314  -0.988977  -2.553317   0.615388  -0.674489   2.887065   0.240461  16.014017  10.847699   8.043271  32.728529   0.095590   7.473272  -0.032115   6.723931   0.349615   1.094068   3.093755   0.398787 -17.924131  13.121386  -6.677000 -31.050774   0.081569  -6.520029   0.028166   7.148734  -2.463704  -1.018408  -0.392536   0.458932  -3.958765   7.223821   0.004107  -0.000102  -5.771128  -1.699164   0.912976  -1.132599  -0.000943  -0.001348  -1.364423  -1.216231   2.558227   5.753498  -0.002937  -0.000562  -5.832715   0.363781  -0.091065   2.259907  -0.001047  -0.000230
 -2.375515   0.920161   3.979470  -0.845304   0.130443   0.674468   0.226768   0.858846  -0.282290   1.410376  -1.385957  -0.993527  -2.749416   0.561115  -0.727861   2.995488   0.334778  16.387853  11.251905   8.712947  34.340573   0.086459   8.000146  -0.030340   7.085372   0.804507   2.510726   3.238926   0.412850 -18.231149  13.488229  -7.373140 -32.659126   0.076430  -7.096299   0.026400   7.517976  -2.937116  -2.397042  -0.456359   0.322757  -4.015285   7.330504   0.003291  -0.000225  -5.896311  -1.773877   0.935839  -0.986733  -0.000756  -0.001356  -1.360023  -1.198740   2.514462   5.731637  -0.002352  -0.000452  -5.855155   0.278382  -0.050539   2.354930  -0.000864  -0.000244
 -2.375461   0.920258   3.979708  -0.762101   0.127230   0.699837   0.299973   0.949640  -0.380738   1.425633  -1.359178  -0.995666  -2.926837   0.511422  -0.774339   3.070285   0.434743  16.480428  11.616505   9.330492  35.657544   0.075993   8.490778  -0.028465   7.421081   1.251040   3.656470   3.350614   0.411731 -18.257653  13.816907  -8.014726 -33.975288   0.069086  -7.638077   0.024515   7.857943  -3.440106  -3.512871  -0.545454   0.189875  -4.063074   7.367305   0.002635  -0.000227  -6.040386  -1.845707   0.955718  -0.852076  -0.000609  -0.001328  -1.379747  -1.187021   2.478676   5.637880  -0.001891  -0.000368  -5.897755   0.196186  -0.008108   2.452751  -0.000720  -0.000259
